@startuml
set namespaceSeparator ?
hide circle
hide class fields

package IG #DDDDDD{

     package Profiles #DDDDDD{

        class ComposantPrescriptPN13{

             ComposantPrescriptPN13 => [None..None]
             ComposantPrescriptPN13.typeComposant => [1..1]
             ComposantPrescriptPN13.codeComposant => [1..1]
             ComposantPrescriptPN13.libelleComposant => [1..1]
             ComposantPrescriptPN13.quantiteComposantPrescrit => [1..1]
             ComposantPrescriptPN13.nonSubstituable => [0..1]
             ComposantPrescriptPN13.estReferentPoso => [0..1]
             ComposantPrescriptPN13.ALDExonerante => [0..1]
             ComposantPrescriptPN13.Indication => [0..1]
             ComposantPrescriptPN13.Commentaire => [0..1]
             ComposantPrescriptPN13.estVehicule => [0..1]
             ComposantPrescriptPN13.lienElementPrescription => [1..1]
        } 

        class ElementPosologiePN13{

             ElementPosologiePN13 => [None..None]
             ElementPosologiePN13.frequence => [0..*]
             ElementPosologiePN13.typeEvenementDebut => [0..1]
             ElementPosologiePN13.evenementDebut => [0..1]
             ElementPosologiePN13.intervalleTempsEvenementDebut => [0..1]
             ElementPosologiePN13.typeEvenementFin => [0..1]
             ElementPosologiePN13.evenementFin => [0..1]
             ElementPosologiePN13.intervalleTempsEvenementFin => [0..1]
             ElementPosologiePN13.typeEvenement2Debut => [0..1]
             ElementPosologiePN13.evenement2Debut => [0..1]
             ElementPosologiePN13.intervalle2TempsEvenenementDebut => [0..1]
             ElementPosologiePN13.typeEvenement2Fin => [0..1]
             ElementPosologiePN13.evenement2Fin => [0..1]
             ElementPosologiePN13.intervalle2TempsEvenenementFin => [0..1]
             ElementPosologiePN13.duree => [0..1]
             ElementPosologiePN13.debit => [0..1]
             ElementPosologiePN13.quantite => [0..1]
        } 

        class ElementPrescriptionMedicalePharmacienLivrePN13{

             ElementPrescriptionMedicalePharmacienLivrePN13 => [None..None]
             ElementPrescriptionMedicalePharmacienLivrePN13.idPrescription => [1..1]
             ElementPrescriptionMedicalePharmacienLivrePN13.typeElementPrescription => [0..1]
             ElementPrescriptionMedicalePharmacienLivrePN13.forme => [0..1]
             ElementPrescriptionMedicalePharmacienLivrePN13.libelleElementPrescription => [0..1]
             ElementPrescriptionMedicalePharmacienLivrePN13.creationArretModificationValidation => [0..1]
             ElementPrescriptionMedicalePharmacienLivrePN13.urgent => [0..1]
             ElementPrescriptionMedicalePharmacienLivrePN13.validationPharmaceutique => [0..1]
             ElementPrescriptionMedicalePharmacienLivrePN13.propositionPharmaceutique => [0..1]
             ElementPrescriptionMedicalePharmacienLivrePN13.fourniture => [0..1]
             ElementPrescriptionMedicalePharmacienLivrePN13.idpPrescripteur => [0..1]
             ElementPrescriptionMedicalePharmacienLivrePN13.voieAdministration => [0..1]
             ElementPrescriptionMedicalePharmacienLivrePN13.lieuAdministration => [0..1]
             ElementPrescriptionMedicalePharmacienLivrePN13.dispositifsAssocies => [0..*]
             ElementPrescriptionMedicalePharmacienLivrePN13.posologie => [0..1]
             ElementPrescriptionMedicalePharmacienLivrePN13.dateHeureDebutPrescrite => [0..1]
             ElementPrescriptionMedicalePharmacienLivrePN13.dateHeureFinPrescrite => [0..1]
             ElementPrescriptionMedicalePharmacienLivrePN13.dateHeureDebutPrescription => [0..1]
             ElementPrescriptionMedicalePharmacienLivrePN13.dateHeureFinPrescription => [0..1]
             ElementPrescriptionMedicalePharmacienLivrePN13.indication => [0..1]
             ElementPrescriptionMedicalePharmacienLivrePN13.commentaire => [0..1]
             ElementPrescriptionMedicalePharmacienLivrePN13.rangElementPrescription => [0..1]
             ElementPrescriptionMedicalePharmacienLivrePN13.goNogo => [0..1]
             ElementPrescriptionMedicalePharmacienLivrePN13.motifAttente => [0..1]
             ElementPrescriptionMedicalePharmacienLivrePN13.deltaDateHeureReference => [0..1]
             ElementPrescriptionMedicalePharmacienLivrePN13.idGroupe => [1..1]
        } 

        class PatientPN13{

             PatientPN13 => [None..None]
             PatientPN13.IPP => [1..1]
             PatientPN13.nomUsuel => [0..1]
             PatientPN13.nomNaissance => [0..1]
             PatientPN13.prenom => [0..1]
             PatientPN13.birthDate => [0..1]
             PatientPN13.sexe => [0..1]
             PatientPN13.oppositionReutilisationDonnees => [0..1]
             PatientPN13.oppositionRecontact => [0..1]
        } 

        class PrescriptionPN13{

             PrescriptionPN13 => [None..None]
             PrescriptionPN13.modeCommunication => [1..1]
             PrescriptionPN13.dateHeurePrescription => [1..1]
             PrescriptionPN13.uniteHebergement => [0..1]
             PrescriptionPN13.uniteResponsabiliteMedicale => [0..1]
             PrescriptionPN13.commentaire => [0..1]
             PrescriptionPN13.idPrescription => [1..1]
             PrescriptionPN13.lienSejour => [0..1]
             PrescriptionPN13.lienRenseignementComplementaire => [0..*]
             PrescriptionPN13.lienProtocolePrescrit => [0..*]
        } 

        class ProtocolePrescritPN13{

             ProtocolePrescritPN13 => [None..None]
             ProtocolePrescritPN13.idProtocolePrescrit => [1..1]
             ProtocolePrescritPN13.libelleProtocolePrescrit => [1..1]
             ProtocolePrescritPN13.CreationArretModificationValidation => [0..1]
             ProtocolePrescritPN13.validationPharmaceutique => [0..1]
             ProtocolePrescritPN13.propostionPharmaceutique => [0..1]
             ProtocolePrescritPN13.referenceProtocole => [0..1]
             ProtocolePrescritPN13.numeroCure => [0..1]
             ProtocolePrescritPN13.numeroJour => [0..1]
             ProtocolePrescritPN13.dateHeureReference => [1..1]
             ProtocolePrescritPN13.Indication => [0..1]
             ProtocolePrescritPN13.Commentaires => [0..1]
             ProtocolePrescritPN13.idProtocolePere => [0..1]
        } 

        class RenseignementComplementairePN13{

             RenseignementComplementairePN13 => [None..None]
             RenseignementComplementairePN13.codeRenseignementComplementaire => [1..1]
             RenseignementComplementairePN13.dateHeureEnregistrementEnregistrementComplementaire => [1..1]
             RenseignementComplementairePN13.dateHeureEnregistrementRenseignementComplementaire => [0..1]
             RenseignementComplementairePN13.valeurRenseignementComplementaire => [1..1]
        } 

        class SejourPN13{

             SejourPN13 => [None..None]
             SejourPN13.lienPatient => [1..1]
             SejourPN13.idSejour => [1..1]
        } 

        class compteRenduAdministrationPN13{

             compteRenduAdministration => [None..None]
             compteRenduAdministration.idProtocolePrescrit => [1..1]
             compteRenduAdministration.libelleProtocolePrescrit => [1..1]
             compteRenduAdministration.CreationArretModificationValidation => [0..1]
             compteRenduAdministration.validationPharmaceutique => [0..1]
             compteRenduAdministration.propostionPharmaceutique => [0..1]
             compteRenduAdministration.referenceProtocole => [0..1]
             compteRenduAdministration.numeroCure => [0..1]
             compteRenduAdministration.numeroJour => [0..1]
             compteRenduAdministration.dateHeureReference => [1..1]
             compteRenduAdministration.Indication => [0..1]
             compteRenduAdministration.Commentaires => [0..1]
             compteRenduAdministration.idProtocolePere => [0..1]
        } 

        class OncoFAIRCarePlan{

             CarePlan.extension => [1..None]
             CarePlan.extension:oncofair-cp-treatment => <&plus>[1..1]
             CarePlan.extension:oncofair-pharmacist-advice => <&plus>[0..1]
             CarePlan.identifier => [1..1]
             CarePlan.identifier.value => [None..None]
             CarePlan.basedOn => [None..None]
             CarePlan.status => [None..None]
             CarePlan.title => [1..None]
             CarePlan.note => [None..None]
             CarePlan.note:indication => [0..1]
             CarePlan.note:indication.id => [1..None]
             CarePlan.note:comments => [0..1]
             CarePlan.note:comments.id => [1..None]
             CarePlan.note:idFatherProtocol => [0..1]
             CarePlan.note:idFatherProtocol.id => [1..None]
        } 

        class OncoFAIREncounter{

             Encounter.identifier => [1..1]
             Encounter.identifier.value => [1..None]
             Encounter.subject => [1..None]
        } 

        class OncoFAIRMedication{

             Medication.extension => [1..None]
             Medication.extension:oncofair-medication-type => <&plus>[1..1]
             Medication.code => [1..None]
        } 

        class OncoFAIRMedicationAdministrationComponent{

             MedicationAdministration.extension => [1..None]
             MedicationAdministration.extension:oncofair-ma-element-traceability => <&plus>[0..1]
             MedicationAdministration.extension:oncofair-ma-element-expirationdate => <&plus>[0..1]
             MedicationAdministration.extension:oncofair-ma-component-origin => <&plus>[0..1]
             MedicationAdministration.extension:oncofair-ma-component-administration-status => <&plus>[1..1]
             MedicationAdministration.partOf => [1..1]
             MedicationAdministration.medication => [None..None]
             MedicationAdministration.medication.concept => [None..None]
             MedicationAdministration.note => [None..None]
             MedicationAdministration.note:comments => [0..1]
             MedicationAdministration.note:comments.id => [1..None]
             MedicationAdministration.note:wording => [0..1]
             MedicationAdministration.note:wording.id => [1..None]
             MedicationAdministration.dosage => [1..None]
             MedicationAdministration.dosage.dose => [1..None]
             MedicationAdministration.dosage.rate[x] => [1..None]
             MedicationAdministration.dosage.rate[x]:rateQuantity => [1..1]
        } 

        class OncoFAIRMedicationAdministrationElement{

             MedicationAdministration.extension => [1..None]
             MedicationAdministration.extension:oncofair-ma-element-urgent => <&plus>[0..1]
             MedicationAdministration.extension:oncofair-ma-element-expirationdate => <&plus>[0..1]
             MedicationAdministration.extension:oncofair-ma-element-traceability => <&plus>[0..1]
             MedicationAdministration.extension:oncofair-ma-plannedperiod => <&plus>[1..1]
             MedicationAdministration.extension:oncofair-element-form => <&plus>[0..1]
             MedicationAdministration.identifier => [1..1]
             MedicationAdministration.partOf => [1..1]
             MedicationAdministration.category => [None..None]
             MedicationAdministration.category:code => [0..1]
             MedicationAdministration.category:nature => [0..1]
             MedicationAdministration.medication => [None..None]
             MedicationAdministration.medication.concept => [None..None]
             MedicationAdministration.occurence[x] => [None..None]
             MedicationAdministration.occurence[x]:occurencePeriod => [0..1]
             MedicationAdministration.occurence[x]:occurencePeriod.start => [1..None]
             MedicationAdministration.occurence[x]:occurencePeriod.end => [None..None]
             MedicationAdministration.request => [None..None]
             MedicationAdministration.request.identifier => [None..None]
             MedicationAdministration.device => [None..None]
             MedicationAdministration.note => [1..None]
             MedicationAdministration.note:wording => [1..1]
             MedicationAdministration.note:wording.id => [1..None]
             MedicationAdministration.note:comments => [0..1]
             MedicationAdministration.note:comments.id => [1..None]
             MedicationAdministration.dosage => [None..None]
             MedicationAdministration.dosage.site => [None..None]
             MedicationAdministration.dosage.route => [None..None]
             MedicationAdministration.dosage.method => [None..None]
        } 

        class OncoFAIRMedicationAdministrationReport{

             MedicationAdministration.identifier => [1..1]
             MedicationAdministration.medication => [None..None]
             MedicationAdministration.medication.concept => [None..None]
             MedicationAdministration.encounter => [1..None]
             MedicationAdministration.performer => [1..1]
             MedicationAdministration.performer.actor => [None..None]
        } 

        class OncoFAIRMedicationRequestComponent{

             MedicationRequest.extension => [None..None]
             MedicationRequest.extension:oncofair-mr-exempt-ltc => <&plus>[0..1]
             MedicationRequest.extension:oncofair-mr-component-solute => <&plus>[0..1]
             MedicationRequest.extension:oncofair-mr-is-dosage-referent => <&plus>[0..1]
             MedicationRequest.basedOn => [1..1]
             MedicationRequest.medication => [None..None]
             MedicationRequest.medication.concept => [None..None]
             MedicationRequest.note => [1..None]
             MedicationRequest.note:wording => [1..1]
             MedicationRequest.note:wording.id => [1..None]
             MedicationRequest.note:comments => [0..1]
             MedicationRequest.note:comments.id => [1..None]
             MedicationRequest.note:indication => [0..1]
             MedicationRequest.note:indication.id => [1..None]
             MedicationRequest.dosageInstruction => [None..1]
             MedicationRequest.dosageInstruction.doseAndRate => [None..1]
             MedicationRequest.dosageInstruction.doseAndRate.dose[x] => [1..None]
             MedicationRequest.dosageInstruction.doseAndRate.dose[x]:doseQuantity => [1..1]
             MedicationRequest.substitution => [None..None]
             MedicationRequest.substitution.allowed[x] => [None..None]
             MedicationRequest.substitution.allowed[x]:allowedBoolean => [0..1]
        } 

        class OncoFAIRMedicationRequestElement{

             MedicationRequest.extension => [None..None]
             MedicationRequest.extension:oncofair-element-form => <&plus>[0..1]
             MedicationRequest.extension:oncofair-mr-element-supply => <&plus>[0..1]
             MedicationRequest.extension:oncofair-mr-element-rank => <&plus>[0..1]
             MedicationRequest.extension:oncofair-mr-element-go-nogo => <&plus>[0..1]
             MedicationRequest.extension:oncofair-pharmacist-advice => <&plus>[0..1]
             MedicationRequest.identifier => [1..1]
             MedicationRequest.identifier.value => [1..None]
             MedicationRequest.basedOn => [1..None]
             MedicationRequest.basedOn:prescription => [1..1]
             MedicationRequest.basedOn:element => [0..*]
             MedicationRequest.basedOn:element.extension => [1..None]
             MedicationRequest.basedOn:element.extension:oncofair-mr-element-link-type => <&plus>[1..1]
             MedicationRequest.basedOn:protocol => [0..1]
             MedicationRequest.groupIdentifier => [1..None]
             MedicationRequest.groupIdentifier.value => [1..None]
             MedicationRequest.status => [None..None]
             MedicationRequest.priority => [None..None]
             MedicationRequest.medication => [None..None]
             MedicationRequest.medication.concept => [None..None]
             MedicationRequest.requester => [None..None]
             MedicationRequest.device => [None..None]
             MedicationRequest.note => [None..None]
             MedicationRequest.note:wording => [0..1]
             MedicationRequest.note:wording.id => [1..None]
             MedicationRequest.note:indication => [0..1]
             MedicationRequest.note:indication.id => [1..None]
             MedicationRequest.note:comments => [0..1]
             MedicationRequest.note:comments.id => [1..None]
             MedicationRequest.effectiveDosePeriod => [None..None]
             MedicationRequest.effectiveDosePeriod.start => [None..None]
             MedicationRequest.effectiveDosePeriod.end => [None..None]
             MedicationRequest.dosageInstruction => [None..None]
             MedicationRequest.dosageInstruction:element => [0..1]
             MedicationRequest.dosageInstruction:element.id => [1..None]
             MedicationRequest.dosageInstruction:element.text => [None..None]
             MedicationRequest.dosageInstruction:element.additionalInstruction => [None..1]
             MedicationRequest.dosageInstruction:element.timing.repeat.bounds[x] => [None..None]
             MedicationRequest.dosageInstruction:element.timing.repeat.bounds[x]:boundsPeriod => [0..1]
             MedicationRequest.dosageInstruction:element.timing.repeat.bounds[x]:boundsPeriod.start => [None..None]
             MedicationRequest.dosageInstruction:element.timing.repeat.bounds[x]:boundsPeriod.end => [None..None]
             MedicationRequest.dosageInstruction:element.timing.repeat.offset => [None..None]
             MedicationRequest.dosageInstruction:element.site => [None..None]
             MedicationRequest.dosageInstruction:element.route => [None..None]
             MedicationRequest.dosageInstruction:element.method => [None..None]
             MedicationRequest.dosageInstruction:posology => [0..*]
             MedicationRequest.dosageInstruction:posology.id => [1..None]
             MedicationRequest.dosageInstruction:posology.timing.repeat.duration => [None..None]
             MedicationRequest.dosageInstruction:posology.timing.repeat.frequency => [None..None]
             MedicationRequest.dosageInstruction:posology.doseAndRate.dose[x] => [None..None]
             MedicationRequest.dosageInstruction:posology.doseAndRate.dose[x]:doseQuantity => [0..1]
             MedicationRequest.dosageInstruction:posology.doseAndRate.rate[x] => [None..None]
             MedicationRequest.dosageInstruction:posology.doseAndRate.rate[x]:rateQuantity => [0..1]
             MedicationRequest.substitution => [None..None]
        } 

        class OncoFAIRMedicationRequestPrescription{

             MedicationRequest.extension => [1..None]
             MedicationRequest.extension:oncofair-mr-prescription-validation-date => <&plus>[1..1]
             MedicationRequest.identifier => [1..1]
             MedicationRequest.identifier.value => [1..None]
             MedicationRequest.basedOn => [None..None]
             MedicationRequest.medication => [None..None]
             MedicationRequest.medication.concept => [None..None]
             MedicationRequest.encounter => [1..None]
             MedicationRequest.supportingInformation => [None..None]
             MedicationRequest.supportingInformation:accomodationUnit => [0..1]
             MedicationRequest.supportingInformation:accomodationUnit.id => [1..None]
             MedicationRequest.supportingInformation:medicalLiabiltyUnit => [0..1]
             MedicationRequest.supportingInformation:medicalLiabiltyUnit.id => [1..None]
             MedicationRequest.reason => [None..None]
             MedicationRequest.note => [None..1]
        } 

        class OncoFAIRObservation{

             Observation.code => [None..None]
             Observation.effective[x] => [1..None]
             Observation.effective[x]:effectiveDateTime => [1..1]
             Observation.issued => [None..None]
             Observation.value[x] => [1..None]
        } 

        class OncoFAIRPatient{

             Patient.identifier => [1..1]
             Patient.identifier.value => [None..None]
         }

     }
     package extension #paleturquoise {

     OncoFAIRCarePlan -[#black,dashed,thickness=2]-> OncoFAIRCPTreatment
     OncoFAIRCarePlan -[#black,dashed,thickness=2]-> OncoFAIRPharmacistAdvice
     OncoFAIRMedication -[#black,dashed,thickness=2]-> OncoFAIRMedicationType
     OncoFAIRMedicationAdministrationComponent -[#black,dashed,thickness=2]-> OncoFAIRMAElementTraceability
     OncoFAIRMedicationAdministrationComponent -[#black,dashed,thickness=2]-> OncoFAIRMAElementExpirationDate
     OncoFAIRMedicationAdministrationComponent -[#black,dashed,thickness=2]-> OncoFAIRMAComponentOrigin
     OncoFAIRMedicationAdministrationComponent -[#black,dashed,thickness=2]-> OncoFAIRMAComponentAdministrationStatus
     OncoFAIRMedicationAdministrationElement -[#black,dashed,thickness=2]-> OncoFAIRMAElementUrgent
     OncoFAIRMedicationAdministrationElement -[#black,dashed,thickness=2]-> OncoFAIRMAElementExpirationDate
     OncoFAIRMedicationAdministrationElement -[#black,dashed,thickness=2]-> OncoFAIRMAElementTraceability
     OncoFAIRMedicationAdministrationElement -[#black,dashed,thickness=2]-> OncoFAIRMAElementPlannedPeriod
     OncoFAIRMedicationAdministrationElement -[#black,dashed,thickness=2]-> OncoFAIRElementForm
     OncoFAIRMedicationRequestComponent -[#black,dashed,thickness=2]-> OncoFAIRMRExemptLTC
     OncoFAIRMedicationRequestComponent -[#black,dashed,thickness=2]-> OncoFAIRMRComponentSolute
     OncoFAIRMedicationRequestComponent -[#black,dashed,thickness=2]-> OncoFAIRMRIsDosageReferent
     OncoFAIRMedicationRequestElement -[#black,dashed,thickness=2]-> OncoFAIRElementForm
     OncoFAIRMedicationRequestElement -[#black,dashed,thickness=2]-> OncoFAIRMRElementSupply
     OncoFAIRMedicationRequestElement -[#black,dashed,thickness=2]-> OncoFAIRMRElementRank
     OncoFAIRMedicationRequestElement -[#black,dashed,thickness=2]-> OncoFAIRMRElementGoNogo
     OncoFAIRMedicationRequestElement -[#black,dashed,thickness=2]-> OncoFAIRPharmacistAdvice
     OncoFAIRMedicationRequestElement -[#black,dashed,thickness=2]-> OncoFAIRMRElementLinkType
     OncoFAIRMedicationRequestPrescription -[#black,dashed,thickness=2]-> OncoFAIRMRPrescriptionValidationDate

        class OncoFAIRCPTreatment{

          Extension.extension => [1..None]
          Extension.extension:treatmentRank => [0..1]
          Extension.extension:treatmentRank.extension => [None..0]
          Extension.extension:treatmentRank.url => [None..None]
          Extension.extension:treatmentRank.value[x] => [None..None]
          Extension.extension:dayRank => [0..1]
          Extension.extension:dayRank.extension => [None..0]
          Extension.extension:dayRank.url => [None..None]
          Extension.extension:dayRank.value[x] => [None..None]
          Extension.extension:dateTimeReference => [1..1]
          Extension.extension:dateTimeReference.extension => [None..0]
          Extension.extension:dateTimeReference.url => [None..None]
          Extension.extension:dateTimeReference.value[x] => [None..None]
          Extension.url => [None..None]
          Extension.value[x] => [None..0]
        } 
        class OncoFAIRElementForm{

          Extension.extension => [None..0]
          Extension.url => [None..None]
          Extension.value[x] => [None..None]
        } 
        class OncoFAIRMAComponentAdministrationStatus{

          Extension.extension => [None..0]
          Extension.url => [None..None]
          Extension.value[x] => [None..None]
        } 
        class OncoFAIRMAComponentOrigin{

          Extension.extension => [None..0]
          Extension.url => [None..None]
          Extension.value[x] => [None..None]
        } 
        class OncoFAIRMAElementExpirationDate{

          Extension.extension => [None..0]
          Extension.url => [None..None]
          Extension.value[x] => [None..None]
        } 
        class OncoFAIRMAElementPlannedPeriod{

          Extension.extension => [None..0]
          Extension.url => [None..None]
          Extension.value[x] => [None..None]
          Extension.value[x].start => [1..None]
          Extension.value[x].end => [None..None]
        } 
        class OncoFAIRMAElementTraceability{

          Extension.extension:batchNumber => [0..1]
          Extension.extension:batchNumber.extension => [None..0]
          Extension.extension:batchNumber.url => [None..None]
          Extension.extension:batchNumber.value[x] => [None..None]
          Extension.extension:serialNumber => [0..1]
          Extension.extension:serialNumber.extension => [None..0]
          Extension.extension:serialNumber.url => [None..None]
          Extension.extension:serialNumber.value[x] => [None..None]
          Extension.url => [None..None]
          Extension.value[x] => [None..0]
        } 
        class OncoFAIRMAElementUrgent{

          Extension.extension => [None..0]
          Extension.url => [None..None]
          Extension.value[x] => [None..None]
        } 
        class OncoFAIRMedicationType{

          Extension.extension => [None..0]
          Extension.url => [None..None]
          Extension.value[x] => [None..None]
        } 
        class OncoFAIRMRComponentSolute{

          Extension.extension => [None..0]
          Extension.url => [None..None]
          Extension.value[x] => [None..None]
        } 
        class OncoFAIRMRElementGoNogo{

          Extension.extension:GoNogoStatus => [0..1]
          Extension.extension:GoNogoStatus.extension => [None..0]
          Extension.extension:GoNogoStatus.url => [None..None]
          Extension.extension:GoNogoStatus.value[x] => [None..None]
          Extension.extension:GoNogoReasonWaiting => [0..1]
          Extension.extension:GoNogoReasonWaiting.extension => [None..0]
          Extension.extension:GoNogoReasonWaiting.url => [None..None]
          Extension.extension:GoNogoReasonWaiting.value[x] => [None..None]
          Extension.url => [None..None]
          Extension.value[x] => [None..0]
        } 
        class OncoFAIRMRElementLinkType{

          Extension.extension => [None..0]
          Extension.url => [None..None]
          Extension.value[x] => [None..None]
        } 
        class OncoFAIRMRElementRank{

          Extension.extension => [None..0]
          Extension.url => [None..None]
          Extension.value[x] => [None..None]
        } 
        class OncoFAIRMRElementSupply{

          Extension.extension => [None..0]
          Extension.url => [None..None]
          Extension.value[x] => [None..None]
        } 
        class OncoFAIRMRExemptLTC{

          Extension.extension => [None..0]
          Extension.url => [None..None]
          Extension.value[x] => [None..None]
        } 
        class OncoFAIRMRIsDosageReferent{

          Extension.extension => [None..0]
          Extension.url => [None..None]
          Extension.value[x] => [None..None]
        } 
        class OncoFAIRMRPrescriptionValidationDate{

          Extension.extension => [None..0]
          Extension.url => [None..None]
          Extension.value[x] => [None..None]
        } 
        class OncoFAIRPharmacistAdvice{

          Extension.extension:pharmacistValidation => [0..1]
          Extension.extension:pharmacistValidation.extension => [None..0]
          Extension.extension:pharmacistValidation.url => [None..None]
          Extension.extension:pharmacistValidation.value[x] => [None..None]
          Extension.extension:pharmacistProposal => [0..1]
          Extension.extension:pharmacistProposal.extension => [None..0]
          Extension.extension:pharmacistProposal.url => [None..None]
          Extension.extension:pharmacistProposal.value[x] => [None..None]
          Extension.url => [None..None]
          Extension.value[x] => [None..0]
         }
     }
     package valueset #PaleVioletRed{

        class SIPhStatutComposantAdmOncoFAIRValueSet  

     OncoFAIRMAComponentAdministrationStatus -[#black,dotted,thickness=2]-> SIPhStatutComposantAdmOncoFAIRValueSet

        class SIPhTypeComposantOncoFAIRValueSet  

     OncoFAIRMedicationType -[#black,dotted,thickness=2]-> SIPhTypeComposantOncoFAIRValueSet

        class ConceptMedicationOncoFAIRValueSet  

     OncoFAIRMedicationAdministrationComponent -[#black,dotted,thickness=2]-> ConceptMedicationOncoFAIRValueSet

        class ConceptMedicationOncoFAIRValueSet  

     OncoFAIRMedicationAdministrationElement -[#black,dotted,thickness=2]-> ConceptMedicationOncoFAIRValueSet

        class SIPhTypeEltPLAOncoFAIRValueSet  

     OncoFAIRMedicationAdministrationElement -[#black,dotted,thickness=2]-> SIPhTypeEltPLAOncoFAIRValueSet

        class ConceptMedicationOncoFAIRValueSet  

     OncoFAIRMedicationAdministrationReport -[#black,dotted,thickness=2]-> ConceptMedicationOncoFAIRValueSet

        class ConceptMedicationOncoFAIRValueSet  

     OncoFAIRMedicationRequestComponent -[#black,dotted,thickness=2]-> ConceptMedicationOncoFAIRValueSet

        class ConceptMedicationOncoFAIRValueSet  

     OncoFAIRMedicationRequestElement -[#black,dotted,thickness=2]-> ConceptMedicationOncoFAIRValueSet

        class SIPhTypeEltPLAOncoFAIRValueSet  

     OncoFAIRMedicationRequestElement -[#black,dotted,thickness=2]-> SIPhTypeEltPLAOncoFAIRValueSet

        class ConceptMedicationOncoFAIRValueSet  

     OncoFAIRMedicationRequestPrescription -[#black,dotted,thickness=2]-> ConceptMedicationOncoFAIRValueSet

        class SIPhgoNogoOncoFAIRValueSet  

     OncoFAIRMRElementGoNogo -[#black,dotted,thickness=2]-> SIPhgoNogoOncoFAIRValueSet

        class SIPhListeALDOncoFAIRValueSet  

     OncoFAIRMRExemptLTC -[#black,dotted,thickness=2]-> SIPhListeALDOncoFAIRValueSet

        class SIPhRensComplementOncoFAIRValueSet  

     OncoFAIRObservation -[#black,dotted,thickness=2]-> SIPhRensComplementOncoFAIRValueSet

        class SIPhStatutValidPharmOncoFAIRValueSet  

     OncoFAIRPharmacistAdvice -[#black,dotted,thickness=2]-> SIPhStatutValidPharmOncoFAIRValueSet

        class SIPhNaturePropPharmOncoFAIRValueSet  

     OncoFAIRPharmacistAdvice -[#black,dotted,thickness=2]-> SIPhNaturePropPharmOncoFAIRValueSet
       }

package "Ressources de base" #palegreen {

 class "Base" as  class095a1b43effec73955e31e790438de49 

    class095a1b43effec73955e31e790438de49 --> ComposantPrescriptPN13

 class "Base" as  class095a1b43effec73955e31e790438de49 

    class095a1b43effec73955e31e790438de49 --> ElementPosologiePN13

 class "Base" as  class095a1b43effec73955e31e790438de49 

    class095a1b43effec73955e31e790438de49 --> ElementPrescriptionMedicalePharmacienLivrePN13

 class "Base" as  class095a1b43effec73955e31e790438de49 

    class095a1b43effec73955e31e790438de49 --> PatientPN13

 class "Base" as  class095a1b43effec73955e31e790438de49 

    class095a1b43effec73955e31e790438de49 --> PrescriptionPN13

 class "Base" as  class095a1b43effec73955e31e790438de49 

    class095a1b43effec73955e31e790438de49 --> ProtocolePrescritPN13

 class "Base" as  class095a1b43effec73955e31e790438de49 

    class095a1b43effec73955e31e790438de49 --> RenseignementComplementairePN13

 class "Base" as  class095a1b43effec73955e31e790438de49 

    class095a1b43effec73955e31e790438de49 --> SejourPN13

 class "Base" as  class095a1b43effec73955e31e790438de49 

    class095a1b43effec73955e31e790438de49 --> compteRenduAdministrationPN13

 class "CarePlan" as  classc1c8e4b50c739ddc150dd233aa035d7a 

    classc1c8e4b50c739ddc150dd233aa035d7a --> OncoFAIRCarePlan

 class "Encounter" as  classd1e9f9f891de8f9a655739a01fbf68f0 

    classd1e9f9f891de8f9a655739a01fbf68f0 --> OncoFAIREncounter

 class "Medication" as  class353bd6f65060d17097c3b03141e79cce 

    class353bd6f65060d17097c3b03141e79cce --> OncoFAIRMedication

 class "MedicationAdministration" as  classcb08d1580a4f19d9fc3a0c98169f1144 

    classcb08d1580a4f19d9fc3a0c98169f1144 --> OncoFAIRMedicationAdministrationComponent

 class "MedicationAdministration" as  classcb08d1580a4f19d9fc3a0c98169f1144 

    classcb08d1580a4f19d9fc3a0c98169f1144 --> OncoFAIRMedicationAdministrationElement

 class "MedicationAdministration" as  classcb08d1580a4f19d9fc3a0c98169f1144 

    classcb08d1580a4f19d9fc3a0c98169f1144 --> OncoFAIRMedicationAdministrationReport

 class "MedicationRequest" as  class2071abb7e1482ea8731af3cdcaed7225 

    class2071abb7e1482ea8731af3cdcaed7225 --> OncoFAIRMedicationRequestComponent

 class "MedicationRequest" as  class2071abb7e1482ea8731af3cdcaed7225 

    class2071abb7e1482ea8731af3cdcaed7225 --> OncoFAIRMedicationRequestElement

 class "MedicationRequest" as  class2071abb7e1482ea8731af3cdcaed7225 

    class2071abb7e1482ea8731af3cdcaed7225 --> OncoFAIRMedicationRequestPrescription

 class "Observation" as  classc680d437163cc6bab4f9bdb35c3073d0 

    classc680d437163cc6bab4f9bdb35c3073d0 --> OncoFAIRObservation

 class "Patient" as  class01122a97dca927210827560cb7d76af8 

    class01122a97dca927210827560cb7d76af8 --> OncoFAIRPatient
}
@enduml